# xmcd CD database file generated by Grip 3.0.0
# 
# Track frame offsets:
#       150
#       19574
#       37584
# 
# Disc length: 749 seconds
# 
# Revision: 7
# Processed by: cddbd v1.4PL0 Copyright (c) Steve Scherf et al.
# Submitted via: Grip 3.0.0
# 
DISCID=1002eb03
DTITLE=Xextacy - The Trinity
DYEAR=1900
DGENRE=Other
TTITLE0=Tight Rope
TTITLE1=Parade
TTITLE2=Paranoid
EXTD=
EXTT0=
EXTT1=
EXTT2=
PLAYORDER=
